HIERARCHY
ROOT Hips
{
  OFFSET -28.5468 85.7219 -35.1486
  CHANNELS 6 Xposition Yposition Zposition Zrotation Xrotation Yrotation
  JOINT ToSpine
  {
    OFFSET -2.69724 7.43032 -0.144315
    CHANNELS 3 Zrotation Xrotation Yrotation
    JOINT Spine
    {
      OFFSET -0.0310711 10.7595 1.96963
      CHANNELS 3 Zrotation Xrotation Yrotation
      JOINT Spine1
      {
        OFFSET 13.1342 3.43533 0.764692
        CHANNELS 3 Zrotation Xrotation Yrotation
        JOINT Neck
        {
          OFFSET 29.8703 7.82586 -0.130764
          CHANNELS 3 Zrotation Xrotation Yrotation
          JOINT Head
          {
            OFFSET 9.52751 0.295786 -0.907742
            CHANNELS 3 Zrotation Xrotation Yrotation
            End Site
            {
              OFFSET 16.4037 0.713936 2.7358
            }
          }
        }
        JOINT LeftShoulder
        {
          OFFSET 27.5574 4.95586 2.47156
          CHANNELS 3 Zrotation Xrotation Yrotation
          JOINT LeftArm
          {
            OFFSET 1.20734 -0.998971 20.1238
            CHANNELS 3 Zrotation Xrotation Yrotation
            JOINT LeftForeArm
            {
              OFFSET 26.8049 -0.0536703 -0.155908
              CHANNELS 3 Zrotation Xrotation Yrotation
              JOINT LeftHand
              {
                OFFSET 26.6817 0 0.320147
                CHANNELS 3 Zrotation Xrotation Yrotation
                End Site
                {
                  OFFSET 18.6119 0 0.382219
                }
              }
            }
          }
        }
        JOINT RightShoulder
        {
          OFFSET 27.5927 4.71444 -2.65209
          CHANNELS 3 Zrotation Xrotation Yrotation
          JOINT RightArm
          {
            OFFSET 2.83739 -1.17114 -18.7564
            CHANNELS 3 Zrotation Xrotation Yrotation
            JOINT RightForeArm
            {
              OFFSET 28.839 -0.0548439 1.22491
              CHANNELS 3 Zrotation Xrotation Yrotation
              JOINT RightHand
              {
                OFFSET 26.5114 0 -0.101894
                CHANNELS 3 Zrotation Xrotation Yrotation
                End Site
                {
                  OFFSET 18.2168 0 0
                }
              }
            }
          }
        }
      }
    }
  }
  JOINT LeftUpLeg
  {
    OFFSET -4.76168 -1.9167 -10.2353
    CHANNELS 3 Zrotation Xrotation Yrotation
    JOINT LeftLeg
    {
      OFFSET 2.55951 -42.0585 -8.02213
      CHANNELS 3 Zrotation Xrotation Yrotation
      JOINT LeftFoot
      {
        OFFSET 3.16357 -42.5282 -3.95426
        CHANNELS 3 Zrotation Xrotation Yrotation
        JOINT LeftToeBase
        {
          OFFSET 0.346054 -6.02161 12.8035
          CHANNELS 3 Zrotation Xrotation Yrotation
          End Site
          {
            OFFSET 0.134235 -1.35082 5.13018
          }
        }
      }
    }
  }
  JOINT RightUpLeg
  {
    OFFSET -4.94151 -1.41743 10.6446
    CHANNELS 3 Zrotation Xrotation Yrotation
    JOINT RightLeg
    {
      OFFSET -2.56294 -42.0364 -7.94377
      CHANNELS 3 Zrotation Xrotation Yrotation
      JOINT RightFoot
      {
        OFFSET -3.0952 -42.555 -4.02241
        CHANNELS 3 Zrotation Xrotation Yrotation
        JOINT RightToeBase
        {
          OFFSET -0.0828122 -6.13587 12.8035
          CHANNELS 3 Zrotation Xrotation Yrotation
          End Site
          {
            OFFSET -0.131328 -1.35082 5.13018
          }
        }
      }
    }
  }
}
MOTION
Frames:	16
Frame Time:	0.0333333
54.6302 97.3574 -6.09553 -156.62 -75.874 138.883 -70.1915 0 88.8779 138.122 41.6677 -56.4845 8.46398 8.61218 6.47856 -116.447 6.2277 -173.543 -134.7 43.4818 -159.446 1.04758 -10.3474 -7.77641 -109.902 12.0904 -117.478 2.968 4.57241 -33.3484 0.420957 0.000575427 0.35866 -0.40318 3.20185 29.5152 -104.309 -17.5695 38.1459 -39.3363 26.8184 60.8515 0.58676 0.000331132 0.0646653 -62.9508 31.3847 85.4855 -3.99487 44.3496 -16.8522 2.67509 -6.20305 -0.773768 2.30982 -1.86626 -8.57639 31.0632 0.376374 95.2667 -0.894806 17.0742 7.42997 -8.94904 18.4857 1.30748 1.76276 -38.8092 -16.4245 
54.9485 99.1065 -6.43604 -129.015 -73.4571 170.567 -70.1915 0 88.8779 142.404 44.6793 -54.739 6.45651 11.513 7.25137 -115.223 7.07283 -175.129 -133.616 44.1333 -161.958 1.03362 -11.2528 -9.67219 -107.754 10.1174 -111.851 4.2401 6.66423 -32.5802 0.420957 0.000575427 0.35866 -0.500463 3.58658 30.3307 -104.389 -14.6179 48.3557 -41.4114 25.7314 63.4827 0.58676 0.000331132 0.0646653 -60.6233 36.6812 87.1657 -3.19918 41.4406 -11.0729 -0.0233768 -4.03053 -0.406533 1.86241 -0.560546 -8.78867 33.5323 -7.11129 100.859 -2.82018 16.8601 5.84515 -9.43511 18.9788 1.44858 1.36342 -35.5016 -19.5447 
55.7478 100.118 -6.53096 -112.905 -69.4475 -171.952 -70.1915 0 88.8779 145.071 47.7135 -54.3603 3.77622 13.5143 8.87542 -115.17 8.32788 -175.389 -133.442 45.3537 -162.314 0.993086 -11.4812 -12.7266 -105.102 5.32254 -105.649 3.09525 5.14432 -31.3347 0.420957 0.000575427 0.35866 -0.690735 4.87913 29.4301 -103.567 -12.6375 58.0467 -38.4067 22.9292 63.5194 0.58676 0.000331132 0.0646653 -59.3794 36.7369 87.2673 -1.99397 37.4434 -6.29142 -2.84872 -4.18847 -0.16371 1.38547 -0.0701996 -7.43502 32.6439 -14.5702 105.75 -3.24407 17.9792 1.62512 -9.98012 17.433 1.59292 1.82828 -32.4673 -17.204 
56.929 100.748 -6.44703 -102.786 -64.8388 -162.282 -70.1915 0 88.8779 147.282 51.0752 -54.089 1.00556 15.3128 9.1674 -116.031 9.65565 -175.332 -135.582 46.8009 -161.645 0.983223 -11.1811 -15.439 -104.283 2.7458 -99.5991 2.55542 4.38477 -30.691 0.420957 0.000575427 0.35866 -0.755839 5.81754 27.7735 -104.248 -10.804 67.5919 -36.9731 21.341 63.8922 0.58676 0.000331132 0.0646653 -58.7215 32.8574 86.5729 -2.89259 32.1067 -15.1133 -6.10712 -5.41221 -0.00911158 2.66751 -5.43102 -1.05566 28.877 -20.7603 108.641 -3.69089 20.3899 3.59573 -11.7317 15.5682 2.03236 1.72334 -32.4837 -18.0449 
58.1056 100.02 -5.6056 -96.2793 -60.1918 -157.686 -70.1915 0 88.8779 149.129 54.5428 -53.8936 -2.32464 17.6893 8.92534 -115.904 10.8885 -176.403 -136.18 48.2249 -162.221 0.975021 -11.0203 -17.6174 -103.893 1.05141 -93.0718 3.60384 6.31908 -29.8727 0.420957 0.000575427 0.35866 -0.807198 6.81386 26.0659 -105 -7.66825 74.8071 -34.8078 19.0704 64.5163 0.58676 0.000331132 0.0646653 -54.9387 25.6577 83.1774 -2.562 33.5168 -12.8644 -4.72712 -4.71459 -0.0489579 0.761231 -1.8641 0.374284 22.63 -24.7527 111.68 -4.9632 22.7946 7.75431 -14.0099 13.9463 2.56864 1.38253 -32.6812 -20.3899 
58.6006 98.7358 -4.31392 -92.2539 -55.2213 -156.339 -70.1915 0 88.8779 149.908 59.039 -53.142 -3.38478 20.7078 8.18171 -117.225 12.7599 -175.686 -138.155 49.8952 -161.964 1.01659 -10.4836 -19.1348 -101.066 -1.74497 -86.4151 2.99963 5.45329 -29.1058 0.420957 0.000575427 0.35866 -0.681514 8.11233 22.1339 -106.119 -7.52926 80.2147 -33.7866 17.9257 64.9862 0.58676 0.000331132 0.0646653 -51.1169 20.1345 82.8632 -1.67776 36.6769 -1.07828 0.0504915 -4.40718 -0.428564 -2.74938 8.23887 -3.50221 14.1019 -27.5017 111.735 -5.24895 24.5382 12.8676 -12.7636 12.3259 2.20046 1.47318 -31.5869 -20.2135 
58.4778 97.7556 -3.16168 -91.5011 -49.8627 -156.659 -70.1915 0 88.8779 150.65 63.7368 -51.6755 -2.05996 24.1209 6.46744 -118.433 13.6953 -175.868 -139.468 50.7709 -162.855 1.04877 -10.1376 -19.2046 -98.0796 -0.353871 -78.8453 2.89662 5.26357 -29.1368 0.420957 0.000575427 0.35866 -0.453248 8.90839 18.2759 -106.446 -9.07232 87.293 -30.0961 17.0407 62.8547 0.58676 0.000331132 0.0646653 -49.6029 20.6333 86.4253 -1.24678 39.0367 4.30684 2.98458 -6.48106 -0.836443 -1.1734 6.16456 -6.51012 1.84656 -28.5081 106.191 -4.39424 25.6682 15.6754 -12.0598 12.0342 2.02819 1.89337 -33.149 -16.6728 
57.7352 96.9139 -2.9344 -92.3626 -46.2219 -158.885 -70.1915 0 88.8779 151.646 66.8307 -54.9553 -2.30683 26.4165 7.61162 -118.917 13.7537 -177.119 -140.62 50.9714 -164.481 1.1234 -9.34024 -18.7101 -96.6321 -0.0454798 -72.1544 3.1546 5.68411 -29.301 0.420957 0.000575427 0.35866 -0.529242 10.5781 17.8105 -106.602 -9.49136 93.5707 -26.0396 15.3672 61.1867 0.58676 0.000331132 0.0646653 -49.5314 22.7326 90.3275 -1.89203 42.2603 0.770177 0.131059 -9.28384 -0.823433 -2.0168 5.38468 -1.74246 -11.6833 -27.6069 104.372 -2.15114 28.9163 9.23952 -11.9618 11.0169 1.98141 2.23892 -32.6182 -14.2189 
56.7939 95.9294 -3.50712 -91.4314 -45.1055 -160.512 -70.1915 0 88.8779 149.75 69.6721 -58.1202 -2.72008 27.6868 8.70612 -118.026 12.5563 179.048 -139.872 50.831 -165.824 1.21971 -7.92404 -17.0569 -97.8013 -0.704536 -67.9733 3.36397 6.35301 -28.4098 0.420957 0.000575427 0.35866 -0.600035 10.0663 18.9594 -107.071 -10.3646 101.285 -22.3906 13.2645 60.5302 0.58676 0.000331132 0.0646653 -47.0604 22.8038 92.6474 -2.38842 46.1561 0.00877473 1.29883 -8.89504 -0.858937 -0.523523 1.90784 -1.69658 -24.1473 -26.3171 105.487 1.48243 35.0123 -0.0546322 -11.1677 9.70921 1.7773 2.1295 -31.6193 -15.0885 
55.6887 95.3614 -4.28548 -86.8999 -45.0522 -157.176 -70.1915 0 88.8779 142.146 73.4709 -51.7816 -2.15199 28.2496 7.55286 -117.606 12.0284 176.664 -141.286 51.5097 -163.75 1.30804 -6.0543 -15.6362 -98.893 -0.235178 -65.2089 2.97456 6.21421 -27.4241 0.420957 0.000575427 0.35866 -0.665889 10.9271 18.9194 -107.412 -14.3364 102.681 -18.9393 9.5608 63.809 0.58676 0.000331132 0.0646653 -42.0827 23.6119 92.1256 -2.72524 47.9972 -0.916912 2.79786 -9.08736 -0.945557 -0.231833 0.772221 -0.656387 -36.4845 -23.5847 97.0736 1.91571 40.21 1.41537 -9.96128 10.1051 1.52384 2.10839 -30.7034 -15.4771 
54.2049 95.095 -5.21939 -82.4833 -45.7428 -153.475 -70.1915 0 88.8779 130.877 76.6848 -41.33 -0.516811 28.7015 6.25006 -119.401 12.3168 175.386 -144.516 52.5966 -161.165 1.36754 -4.54155 -14.8858 -100.103 1.11378 -63.9503 1.38308 4.04357 -26.1051 0.420957 0.000575427 0.35866 -0.624818 10.8933 18.5393 -105.599 -15.9978 104.649 -12.8081 5.26613 67.6125 0.58676 0.000331132 0.0646653 -38.0143 23.8251 90.4737 -2.73046 48.2746 -0.464639 3.15478 -9.68879 -0.995696 -0.324724 1.52895 -1.83976 -48.7508 -18.2539 88.5619 2.46269 44.0531 3.19843 -9.10001 10.9914 1.34985 2.45997 -29.3922 -12.0529 
53.0436 94.3201 -6.51134 -77.0329 -46.0437 -150.841 -70.1915 0 88.8779 113.564 79.9495 -26.4033 0.793089 29.8757 5.25527 -122.486 13.1338 173.139 -149.752 54.2719 -158.582 1.37779 -3.77035 -14.2894 -103.437 3.18862 -63.4986 0.755984 3.02443 -25.6135 0.420957 0.000575427 0.35866 -0.713273 11.1482 19.2118 -105.334 -13.8246 104.874 -6.55623 1.97816 72.7895 0.58676 0.000331132 0.0646653 -32.9261 22.6681 90.1395 -3.05541 49.6829 -1.48205 4.22366 -9.2709 -1.02318 -0.357946 1.05086 -0.648346 -57.2064 -14.1113 80.3463 2.97061 47.2658 4.6924 -11.688 12.7131 1.95282 2.78285 -29.7873 -9.62653 
52.2816 93.4324 -8.22941 -73.0717 -45.6699 -149.004 -70.1915 0 88.8779 105.931 81.0187 -18.2104 1.59369 31.4505 1.68145 -123.772 14.394 171.318 -152.484 56.1067 -156.194 1.4482 -2.80721 -14.623 -106.24 5.18365 -62.7707 0.219038 1.2486 -26.6528 0.420957 0.000575427 0.35866 -0.769019 11.7127 19.2847 -106.02 -12.7908 104.998 4.37638 -1.114 75.8761 0.58676 0.000331132 0.0646653 -28.3424 22.3558 89.9591 -3.34363 51.1907 -1.98383 4.19822 -9.40834 -1.02827 -0.977782 2.18483 -0.128418 -64.7392 -9.76027 71.4179 2.74403 48.2369 1.75876 -13.0283 12.5197 2.27651 2.86355 -25.0265 -4.33235 
52.4318 92.3861 -10.0859 -70.1937 -42.7815 -149.374 -70.1915 0 88.8779 102.871 81.9106 -12.9457 2.36148 33.5062 -3.2704 -126.518 14.7082 171.844 -153.398 56.1805 -155.82 1.64777 -0.79172 -15.7171 -108.014 8.36113 -60.9023 0.644932 1.31235 -28.9469 0.420957 0.000575427 0.35866 -0.630347 12.2917 17.6374 -105.581 -13.9978 105.84 11.559 -2.35192 78.5501 0.58676 0.000331132 0.0646653 -24.152 22.5009 91.3929 -3.52981 52.5706 -1.80742 3.39103 -9.28364 -0.984857 -1.93852 2.97618 2.50946 -69.3592 -8.14834 64.0334 1.90004 47.4116 -3.33616 -18.2185 13.8817 3.60237 2.95645 -24.1764 -1.36325 
53.4013 91.39 -12.0849 -68.7633 -37.3083 -152.502 -70.1915 0 88.8779 103.462 83.1269 -11.5536 2.47647 35.7656 -7.21867 -129.149 16.2789 174.301 -156.848 57.0357 -153.766 1.95438 1.47638 -17.3079 -109.036 12.5328 -57.4565 1.0524 1.90626 -30.7553 0.420957 0.000575427 0.35866 -0.40322 12.7776 15.4061 -103.495 -16.4911 106.796 18.8974 -3.01238 81.1245 0.58676 0.000331132 0.0646653 -21.2706 23.6475 94.8537 -3.3803 53.1873 -0.1088 2.59501 -8.98833 -0.929109 -2.33141 3.47778 3.15839 -70.7238 -9.49889 60.4317 0.978735 45.7607 -7.98834 -24.9045 14.5687 5.37155 3.07469 -25.3036 -0.988314 
54.9003 90.6277 -14.1033 -68.728 -30.8514 -157.16 -70.1915 0 88.8779 112.227 83.8077 -18.7413 2.9711 37.3849 -10.0345 -132.889 17.8944 177.458 -159.623 57.8477 -152.551 2.33088 2.71447 -19.763 -111.028 15.5078 -52.365 1.43344 2.45071 -31.5996 0.420957 0.000575427 0.35866 -0.285163 13.202 14.2707 -100.355 -18.4116 106.407 23.9616 -1.91506 85.3835 0.58676 0.000331132 0.0646653 -20.3602 24.9278 97.8529 -2.86738 52.9945 2.68538 0.691396 -8.59417 -0.806051 -3.05169 4.36042 4.35999 -69.8121 -11.4695 61.5674 1.25567 43.2723 -4.62158 -23.8707 15.6614 5.27885 3.39211 -29.3122 -6.26054 
